{"title":"NRL 360 - 5-7-2016","uid":15229407,"size":1234847154,"categoryP":"video","categoryS":"tv_shows","magnet":"?xt=urn:btih:687134722a0a598c2bac5c3e05ce40fa4e1c07f3&amp;dn=NRL+360+-+5-7-2016&amp;tr=udp%3A%2F%2Ftracker.leechers-paradise.org%3A6969&amp;tr=udp%3A%2F%2Fzer0day.ch%3A1337&amp;tr=udp%3A%2F%2Fopen.demonii.com%3A1337&amp;tr=udp%3A%2F%2Ftracker.coppersurfer.tk%3A6969&amp;tr=udp%3A%2F%2Fexodus.desync.com%3A6969","seeders":2,"leechers":0,"uploader":"Bullrout","files":1,"time":1467806621,"description":"NRL 360 - 5-7-2016\r\n\r\nOn the agenda, latest from both Origin camps including a cross to Blues prop James Tamou, MRC confusion &amp; Rnd 18 teams. Plus Michael Ennis &amp; Benji Marshall are in for Players' Night as part of Rnd 17's Recap.\r\n\r\nComplete name                            : NRL 360 - 5-7-2016.mkv\r\nFormat                                   : Matroska\r\nFormat version                           : Version 4 / Version 2\r\nFile size                                : 1.15 GiB\r\nDuration                                 : 49mn 58s\r\nOverall bit rate mode                    : Variable\r\nOverall bit rate                         : 3 295 Kbps\r\nEncoded date                             : UTC 2016-07-05 22:58:05\r\nWriting application                      : mkvmerge v9.2.0 ('Photograph') 64bit\r\nWriting library                          : libebml v1.3.3 + libmatroska v1.4.4\r\n\r\nVideo\r\nID                                       : 2\r\nFormat                                   : AVC\r\nFormat/Info                              : Advanced Video Codec\r\nFormat profile                           :   \r\nFormat settings, CABAC                   : Yes\r\nFormat settings, ReFrames                : 3 frames\r\nCodec ID                                 : V_MPEG4/ISO/AVC\r\nDuration                                 : 49mn 58s\r\nBit rate mode                            : Variable\r\nBit rate                                 : 2 909 Kbps\r\nMaximum bit rate                         : 3 000 Kbps\r\nWidth                                    : 1 280 pixels\r\nHeight                                   : 720 pixels\r\nDisplay aspect ratio                     : 16:9\r\nFrame rate mode                          : Constant\r\nFrame rate                               : 25.000 fps\r\nStandard                                 : PAL\r\nColor space                              : YUV\r\nChroma subsampling                       : 4:2:0\r\nBit depth                                : 8 bits\r\nScan type                                : Progressive\r\nBits/(Pixel*Frame)                       : 0.126\r\nStream size                              : 1.02 GiB (88%)\r\nWriting library                          : x264 core 112\r\nDefault                                  : Yes\r\nForced                                   : No\r\nColor range                              : Limited\r\nColor primaries                          : BT.709\r\nTransfer characteristics                 : BT.709\r\nMatrix coefficients                      : BT.709\r\n\r\nAudio\r\nID                                       : 1\r\nFormat                                   : AC-3\r\nFormat/Info                              : Audio Coding 3\r\nMode extension                           : CM (complete main)\r\nFormat settings, Endianness              : Big\r\nCodec ID                                 : A_AC3\r\nDuration                                 : 49mn 58s\r\nBit rate mode                            : Constant\r\nBit rate                                 : 384 Kbps\r\nChannel(s)                               : 6 channels\r\nChannel positions                        : Front: L C R, Side: L R, LFE\r\nSampling rate                            : 48.0 KHz\r\nFrame rate                               : 31.250 fps (1536 spf)\r\nCompression mode                         : Lossy\r\nStream size                              : 137 MiB (12%)\r\nDefault                                  : Yes\r\nForced                                   : No","torrent":{"xt":"urn:btih:687134722a0a598c2bac5c3e05ce40fa4e1c07f3","amp;dn":"NRL+360+-+5-7-2016","amp;tr":["udp%3A%2F%2Ftracker.leechers-paradise.org%3A6969","udp%3A%2F%2Fzer0day.ch%3A1337","udp%3A%2F%2Fopen.demonii.com%3A1337","udp%3A%2F%2Ftracker.coppersurfer.tk%3A6969","udp%3A%2F%2Fexodus.desync.com%3A6969"],"infoHash":"687134722a0a598c2bac5c3e05ce40fa4e1c07f3","infoHashBuffer":{"type":"Buffer","data":[104,113,52,114,42,10,89,140,43,172,92,62,5,206,64,250,78,28,7,243]},"announce":[],"urlList":[]}}